<svg xmlns="http://www.w3.org/2000/svg" width="24" height="24" fill="#9b1fe8" viewBox="0 0 24 24">
  <path d="M12 2C6.48 2 2 6.48 2 12s4.48 10 10 10 10-4.48 10-10S17.52 2 12 2zm4.64 6.8c-.15 1.58-.8 5.42-1.13 7.19-.14.75-.42 1-.68 1.03-.58.05-1.02-.38-1.58-.75-.88-.58-1.38-.94-2.23-1.5-.99-.65-.35-1.01.22-1.59.15-.15 2.71-2.48 2.76-2.69.01-.03.01-.14-.07-.2-.08-.06-.19-.04-.27-.02-.12.02-2.04 1.29-5.73 3.79-.54.37-1.03.55-1.47.54-.49-.01-1.43-.28-2.13-.5-.86-.27-1.54-.41-1.48-.87.03-.24.36-.49.99-.75 3.88-1.69 6.46-2.8 7.76-3.35 3.69-1.55 4.45-1.82 4.95-1.83.11 0 .35.03.5.15.13.12.17.29.19.4z"/>
</svg>
